<?xml version="1.0" standalone="no"?><!DOCTYPE svg PUBLIC "-//W3C//DTD SVG 1.1//EN" "http://www.w3.org/Graphics/SVG/1.1/DTD/svg11.dtd"><svg t="1743588803952" class="icon" viewBox="0 0 1024 1024" version="1.1" xmlns="http://www.w3.org/2000/svg" p-id="3512" xmlns:xlink="http://www.w3.org/1999/xlink" width="200" height="200"><path d="M914.8 623.4c-14.8-28.5-35.9-54-62.7-75.8C798.5 504 727.6 480 652.5 480c-64.6 0-125.5 17.5-176.1 50.6-20.3 13.3-38.3 28.8-53.5 45.9l-29.3-68.8c80.5-9.1 153.2-51.9 212.7-125.8 52.8-65.6 76.5-132.7 77.5-135.5v-0.1c16.2-47.1 25.4-82.6 28.1-108.6 1.3-12.3 5.2-49.6-22.7-67.2-12.6-7.9-33.9-13.1-63.9 7-10.2 6.8-18.3 14.4-20.7 16.7-61.3 55.9-127.1 72.4-135.5 74.4-62.2 8.1-112.2 20.7-148.7 37.6-32.8 15.2-56 34.3-68.8 56.9-18.9 33.3-9.3 62.8-5.5 71.9 0.1 0.2 0.1 0.3 0.2 0.5l3.8 8.8 37.9 89.2 23.4 55 54.7 128.6c-20.9-5.8-42.8-8.9-65.4-8.9-54.1 0-105.2 17.3-143.9 48.8-19.5 15.9-35 34.5-45.8 55.4-11.6 22.2-17.5 46-17.5 70.5s5.9 48.2 17.5 70.5c10.9 20.9 26.3 39.6 45.8 55.4 38.8 31.5 89.9 48.8 143.9 48.8h351.7c75.1 0 146-24 199.6-67.6 26.8-21.7 47.9-47.2 62.7-75.8 15.7-30.1 23.6-62.2 23.6-95.4s-7.8-65.2-23.5-95.4zM243.8 319c-0.5 5.1 0.2 10.4 2.1 15.3-1.9-4.9-2.6-10.1-2.1-15.3z m67.3-23.1c3.4-5.6 12.9-16.8 39.1-28.7 30.4-13.8 73.9-24.4 129-31.5 0.7-0.1 1.5-0.2 2.2-0.4 3.5-0.7 82-16.7 159-82.2-3.6 16-9.9 38.8-20.9 70.9-0.6 1.7-21.2 59.3-66.2 115.3-53.5 66.5-116.6 100.9-187.9 102.3L309.1 309c-0.1-0.2-0.2-0.5-0.3-0.7-0.5-1.3-1.7-5.7 2.3-12.4z m498.1 541.3c-41.5 33.8-97.2 52.3-156.7 52.3H300.8c-38.5 0-74.4-11.9-101-33.6-24.6-20-38.2-46-38.2-73.1s13.6-53.1 38.2-73.1c26.7-21.7 62.6-33.6 101-33.6 32.5 0 63 8.5 88.4 24.7l17.3 11 38.9 91.4c5.5 12.9 18.1 20.7 31.3 20.7 4.4 0 9-0.9 13.3-2.7 17.3-7.3 25.3-27.3 18-44.6l-54.1-127.2c13.6-23.6 34.1-44.9 59.8-61.7 39-25.5 88.3-39.5 138.9-39.5 59.5 0 115.2 18.6 156.7 52.3 39.5 32.1 61.2 74.1 61.2 118.4-0.1 44.2-21.8 86.2-61.3 118.3z" fill="" p-id="3513"></path></svg>