<?xml version="1.0" standalone="no"?><!DOCTYPE svg PUBLIC "-//W3C//DTD SVG 1.1//EN" "http://www.w3.org/Graphics/SVG/1.1/DTD/svg11.dtd"><svg t="1743588913935" class="icon" viewBox="0 0 1024 1024" version="1.1" xmlns="http://www.w3.org/2000/svg" p-id="9665" xmlns:xlink="http://www.w3.org/1999/xlink" width="200" height="200"><path d="M1000 5.8c-2.8-3-7.4-5-14.2-5.8h-0.8c-234 4.8-425.6 34.8-569.8 88.8-142.2 53.4-240.4 131.6-291.6 232-76.8 150.8-25.4 321 28 398.6 3.6 5.4 9.2 8.4 14.6 7.8h1c6.2-0.4 11.8-3.8 14.8-9.2 30-53.4 79.6-133 146-209.6 74.8-86.6 155.4-151.8 239.2-193.8l57.6-28.8-39.2 51c-73.6 96-183.4 245.8-289.8 415l-0.8 1c-9.2 12.6-85.6 122.8-47.4 257.4 2.2 7.8 9.2 13.2 17.4 13.2 1.8 0 3.2-0.2 4.8-0.6 9.6-2.8 15.2-12.8 12.4-22.4-25-87.8 6.6-165 27.6-203.2l6.4-11.6 12.2 5.2c128 54 248 53.4 347-2.2 85.4-47.8 156.4-136.4 211.2-263.2 55.6-128.6 95.2-298.4 118-505 0.6-5.4-1-10.6-4.6-14.6z m-355.8 602c-1.4-9.8-10.4-16.6-20.4-15.4l-199.6 28.6 19.2-27.8c12.2-17.8 25.4-36.4 40-57.2l4.4-6.2h7.6c1.2 0 2.2 0 3.4-0.4l163.8-33c9.8-2 16-11.6 14-21.2v-0.2c-0.8-4.6-3.6-8.8-7.6-11.4-4-2.6-8.8-3.6-13.4-2.6l-138.8 27.8 22.6-30.8c77.8-106.2 135.4-177.4 146.2-190.6l0.4-0.4c5-6 5.6-14.6 1.4-21.4-4.2-6.6-12-9.8-19.6-7.8-78.6 20.2-155.8 59-229 115.2l-23.8 18.2v-90.2c0-6.4-3.4-12.4-9-15.6-5.6-3.2-12.4-3.2-18 0s-9 9.2-9 15.6v122.2l-4.6 4.4c-21.8 20.4-43.6 42.8-64.6 66.4L284 503V360c0-10-8-18-18-18s-18 8-18 18v189.8l-3 4c-23.2 31-45 63.2-65 95.6L165.4 674l-11.2-26.4c-21.4-50.6-64-182.2 1.4-310.4 46.8-91.8 139-163.8 274.6-214.6 133.4-49.8 308-78.6 519.2-85.6l17.2-0.6-2.2 17.2c-23 187.4-60.2 341.4-110.6 458-51 118.4-117 200.8-195.8 245h-0.2c-45.2 25.4-94.8 38.2-147.6 38.2-49.4 0-102.4-11.2-157.6-33.4l-16.6-6.6 9.6-15c14-22 29.2-45 47.6-72.8l3.6-5.6 232-33.2c10-1.4 16.8-10.6 15.4-20.4z" fill="#666666" p-id="9666"></path></svg>