<?xml version="1.0" standalone="no"?><!DOCTYPE svg PUBLIC "-//W3C//DTD SVG 1.1//EN" "http://www.w3.org/Graphics/SVG/1.1/DTD/svg11.dtd"><svg t="1743588978043" class="icon" viewBox="0 0 1043 1024" version="1.1" xmlns="http://www.w3.org/2000/svg" p-id="10670" xmlns:xlink="http://www.w3.org/1999/xlink" width="203.7109375" height="200"><path d="M510.61 743.063c-10.994-6.017-21.304-11.493-31.421-17.303-2.861-1.642-4.649-1.528-7.091 0.688-12.608 11.446-25.239 22.877-38.12 34.014-20.894 18.063-41.966 35.92-63.013 53.806-8.027 6.822-16.193 13.482-24.262 20.19 0.327 0.47 0.387 0.656 0.482 0.678 1.091 0.248 2.182 0.497 3.282 0.697 21.173 3.845 41.303 3.211 59.229-11.209 19.119-15.379 38.983-29.833 58.123-45.187 14.393-11.547 28.154-23.882 42.792-36.374m39.713-35.812c38.083-36.669 75.968-73.151 114.158-109.924l-41.028-20.534c-36.287 37.407-72.327 74.56-108.491 111.844l35.361 18.614m148.804-148.49c31.412-34.865 62.419-71.361 91.429-109.734l-48.394-26.665-86.898 114.456a1150753.9 1150753.9 0 0 0 43.862 21.944M201.335 716.186l102.757-128.7a1357698.77 1357698.77 0 0 1-35.956-46.32c-0.752 0.837-1.718 1.691-2.416 2.723-12.641 18.699-25.861 37.042-37.716 56.227-15.644 25.314-29.222 51.722-35.021 81.362-2.506 12.808-1.702 24.869 8.352 34.707m387.053-408.7c-12.588-14.899-24.997-29.589-37.546-44.439-38.183 28.636-74.855 59.17-110.759 91.867l35.774 46.34 112.531-93.767m39.332-31.265l186.186-143.646c-3.239 0.152-5.353 0.062-7.404 0.378-24.612 3.799-48.205 11.145-71.248 20.461-35.007 14.152-68.037 32.12-100.098 51.92-14.565 8.995-28.792 18.535-43.884 28.286 12.45 14.553 24.428 28.551 36.447 42.601M403.298 389.512c-36.116 34.94-70.393 71.432-102.997 110.49l36.114 48.187 102.654-113.111c-11.558-14.725-23.516-29.956-35.77-45.566m368.451-7.828a353920.16 353920.16 0 0 0 48.428 26.414c1.249-1.712 2.362-3.062 3.284-4.531 12.26-19.53 25.148-38.703 36.588-58.702 20.135-35.198 37.377-71.701 44.312-112.172 2.414-14.086 3.233-28.223 0.28-42.423L771.751 381.685M609.215 510.71c29.494-38.696 58.642-76.941 87.435-114.716a2307352.06 2307352.06 0 0 0-73.979-54.184c-37.153 30.883-74.978 62.322-112.995 93.921 30.848 28.891 63.785 52.97 99.539 74.98M231.692 755.732c18.374 19.992 37.062 38.006 58.454 53.071 2.412 1.697 3.872 1.067 5.786-0.512 9.414-7.764 19.018-15.3 28.332-23.182a19953.343 19953.343 0 0 0 81.821-69.636c7.499-6.415 14.709-13.17 22.39-20.072-33.065-21.06-63.698-44.182-91.371-72.222L231.691 755.734M84.642 887.524c1.172 4.269 1.904 8.724 3.598 12.773 5.058 12.082 14.2 20.866 24.459 28.516 17.15 12.788 29.671 13.401 47.688 1.833 8.623-5.536 16.632-12.027 24.928-18.07 9.854-7.179 19.731-14.362 32.176-16.425 16.794-2.785 32.88 0.026 48.36 6.665 8.149 3.496 10.943 2.329 13.58-6.116 2.453-7.861 3.232-16.245 4.763-24.396 0.559-2.978-0.807-4.545-3.395-5.988-22.248-12.407-42.142-28.015-60.649-45.417-22.642-21.288-42.97-44.61-60.93-69.992-0.773-1.093-2.629-2.274-3.784-2.1-6.924 1.047-13.849 2.237-20.652 3.881-3.58 0.864-5.993 3.691-4.97 7.606 2.121 8.129 4.674 16.146 7.072 24.203 1.175 3.949 3 7.81 3.483 11.836 1.188 9.94-3.019 18.128-9.644 25.2-10.649 11.367-21.789 22.306-31.915 34.119-7.654 8.93-13.272 19.263-14.165 31.872m285.153-302.708c1.02 1.176 1.801 2.18 2.687 3.081 27.321 27.741 58.555 50.419 91.517 70.891 2.579 1.602 3.952 0.856 5.715-0.91 29.417-29.466 58.92-58.847 88.253-88.397 6.313-6.358 12.039-13.302 17.83-19.748-17.801-12.623-35.686-24.556-52.725-37.593-17.051-13.047-33.26-27.195-50.211-41.168-35.78 35.99-69.734 74.509-103.065 113.842m-228.812 81.05c7.789-33.139 22.243-62.583 39.137-90.921 35.666-59.831 79.648-113.309 126.919-164.139 21.451-23.067 44.058-45.061 66.24-67.444 9.146-9.229 16.329-19.768 21.777-31.488 14.522-31.239 19.142-64.605 20.4-98.557 1.037-27.977-0.696-55.862-4.845-83.565-0.878-5.861-2.148-11.663-3.491-18.844-1.568 2.874-2.409 4.393-3.23 5.923-10.214 19.049-20.239 38.202-30.686 57.123-11.877 21.508-24.423 42.744-41.063 60.911-23.341 25.481-47.239 50.478-71.554 75.033-27.606 27.878-56.113 54.859-83.884 82.574-18.015 17.978-34.032 37.606-44.895 60.914-13.06 28.022-19.371 57.777-22.25 88.367-2.396 25.442-1.321 50.654 5.912 75.332 5.179 17.663 13.245 33.867 25.513 48.783m228.685 227.753c5.077 3.444 9.789 7.041 14.865 10.016 22.527 13.206 47.105 19.535 72.984 21.585 30.786 2.439 61.145 1.035 90.817-8.515 36.038-11.601 66.834-32.059 95.32-56.312 37.449-31.881 70.209-68.414 102.737-105.111 22.477-25.358 46.92-48.382 74.685-67.899 34.377-24.165 71.823-42.677 109.709-60.432 1.758-0.824 3.489-1.707 6.388-3.13-16.571-4.575-31.948-7.049-47.554-8.71-28.316-3.014-56.497-1.846-84.511 2.403-37.225 5.646-72.723 16.963-106.254 34.298-17.464 9.029-33.643 19.418-47.399 33.941-17.124 18.076-35.2 35.32-53.643 52.065-32.236 29.267-64.52 58.53-97.837 86.54-22.188 18.653-46.062 35.327-69.481 52.478-8.796 6.441-18.69 11.173-29.739 12.702-10.097 1.397-20.212 2.658-31.089 4.079M862.498 157.88l-1.542 0.208c-1.31 0.929-2.651 1.818-3.924 2.795-56.263 43.176-112.531 86.347-168.764 129.56-8.078 6.207-15.987 12.633-25.095 19.848l62.601 44.492c1.3-1.637 1.817-2.224 2.264-2.861 32.274-46.101 64.627-92.147 96.769-138.339 12.537-18.017 24.599-36.363 36.876-54.56 0.236-0.404 0.473-0.807 0.708-1.212l0.553-0.534-0.585-0.054 0.141 0.657M325.342 925.674c-7.131 12.164-16.205 21.713-28.846 27.313-16.613 7.362-33.276 6.719-49.885-0.199-2.355-0.981-4.789-1.779-7.207-2.6-7.177-2.436-13.424-1.459-19.735 3.359-11.713 8.942-23.708 17.593-36.129 25.514-13.015 8.298-27.645 12.631-43.099 13.351-15.035 0.703-29.31-2.834-42.56-9.866-23.074-12.246-41.782-29.406-54.582-52.222-17.642-31.443-14.611-62.617 3.195-93.03 8.924-15.242 20.612-28.266 33.341-40.365 2.369-2.25 2.696-4.12 1.685-7.059-4.758-13.803-7.361-27.944-4.399-42.493 3.543-17.415 13.072-30.784 28.652-39.928-3.718-4.637-7.414-9.038-10.887-13.611-19.465-25.632-31.073-54.638-36.446-86.203-8.709-51.166-1.439-100.927 14.023-149.814 10.36-32.758 27.52-61.929 51.221-86.572 32.987-34.298 67.38-67.236 100.805-101.118 22.807-23.117 45.393-46.483 67.311-70.439 15-16.394 25.957-35.821 36.637-55.224 13.749-24.973 26.911-50.272 40.679-75.235 6.04-10.952 12.701-21.622 22.858-29.471 17.514-13.537 37.645-10.212 49.727 8.348 8.803 13.52 12.655 28.951 16.195 44.371 8.476 36.924 11.995 74.447 11.238 112.256-0.366 18.245-2.753 36.452-4.215 54.677-0.059 0.735-0.008 1.48-0.008 2.968 8.365-6.703 16.174-13.054 24.082-19.28 56.806-44.731 116.026-85.804 180.678-118.564C705.455 106.406 742.383 91.207 781.828 83c31.801-6.617 63.691-8.423 94.973 2.45 42.524 14.783 68.328 45.151 79.134 88.312 8.14 32.511 3.755 64.684-5.158 96.374-11.432 40.653-30.166 78.067-51.597 114.241-27.374 46.204-58.914 89.466-92.722 131.108-15.27 18.81-30.94 37.298-46.819 56.402 6.928-1.433 13.499-2.817 20.077-4.148 34.818-7.045 69.941-9.023 105.37-6.677 27.29 1.808 54.031 6.291 79.803 15.649 11.632 4.223 22.869 9.332 32.05 17.964 17.555 16.506 17.344 40.271-1.056 55.906-6.775 5.758-14.43 10.777-22.348 14.841-23.793 12.21-48.085 23.446-71.866 35.679-44.274 22.775-83.027 52.536-115.828 90.333-28.763 33.144-58.449 65.534-90.959 95.152-35.557 32.392-73.777 60.682-119.473 77.455-25.289 9.283-51.343 14.211-78.289 15.503-31.029 1.489-61.572-0.996-91.474-9.293-29.446-8.171-55.994-21.967-78.425-43.084-0.455-0.43-0.981-0.783-1.88-1.491z" p-id="10671"></path></svg>