<?xml version="1.0" standalone="no"?><!DOCTYPE svg PUBLIC "-//W3C//DTD SVG 1.1//EN" "http://www.w3.org/Graphics/SVG/1.1/DTD/svg11.dtd"><svg t="1745051644782" class="icon" viewBox="0 0 1024 1024" version="1.1" xmlns="http://www.w3.org/2000/svg" p-id="3043" width="48" height="48" xmlns:xlink="http://www.w3.org/1999/xlink"><path d="M467.48136 602.251455H447.782406v49.898233h16.922009a43.997225 43.997225 0 0 0 28.11657-6.942363 22.38912 22.38912 0 0 0 8.070497-17.355907 24.645388 24.645388 0 0 0-7.029143-17.355907 36.013507 36.013507 0 0 0-26.380979-8.244056z" p-id="3044" fill="#1296db"></path><path d="M968.71996 462.536402A1657.489138 1657.489138 0 0 0 845.926917 260.340083C798.892408 192.912384 751.597561 132.079929 720.270149 92.942358c-35.926728-44.691461-60.745675-73.328708-64.130077-77.147007a38.964012 38.964012 0 0 0-62.654825 0c-3.384402 3.8183-28.203349 32.455546-64.130077 77.147007C498.027757 132.079929 403.698401 260.340083 403.698401 260.340083s-27.682672-35.57961-38.096216-49.290776c-26.554538-34.711814-44.86502-57.187714-47.381627-60.138219a27.943011 27.943011 0 0 0-46.340272 0c-2.516607 2.950504-20.827089 25.252845-47.381626 60.138219-23.170136 30.546397-58.142289 78.101582-92.940883 130.776761A1299.349992 1299.349992 0 0 0 40.873161 499.504484C13.711167 556.865758 0 603.987046 0 639.653435c0 160.542142 131.123879 291.318902 295.050422 297.567029a312.40633 312.40633 0 0 0 69.423629-10.413544A433.89768 433.89768 0 0 0 624.812659 1024c221.808494-8.070497 399.185866-175.72856 399.185866-381.829958 0-45.559256-18.570821-106.044593-55.278565-179.63364zM86.779536 639.653435c0-10.326765 3.210843-40.959941 32.542326-103.094089a1221.855867 1221.855867 0 0 1 84.696827-146.744195c33.410121-50.679249 67.167361-96.498844 89.556481-126.003886l1.475252-1.90915 1.475252 1.90915c14.578962 19.178277 33.930799 45.385697 54.931447 75.237857a1413.725421 1413.725421 0 0 0-70.551763 123.48728C244.197614 536.125449 225.626794 596.610785 225.626794 642.170042a358.573043 358.573043 0 0 0 67.080581 208.270886C176.856694 842.977888 86.779536 751.512257 86.779536 639.653435z m460.972895 38.703673q-20.306411 19.091498-62.134148 19.091498H447.782406v82.961236h-69.423629V556.778978h114.896106q37.48876 0 56.233139 17.876585a66.993802 66.993802 0 0 1 18.6576 50.766028 68.642613 68.642613 0 0 1-20.393191 52.935517z m323.60089 102.052734h-84.870386V669.852714H694.236288v110.557128h-84.523268V507.141084H694.236288v95.457489h92.246647v-95.457489h84.870386z" p-id="3045" fill="#1296db"></path></svg>